<svg t="1712499635191" class="icon" viewBox="0 0 1024 1024" version="1.1" xmlns="http://www.w3.org/2000/svg" p-id="6965" width="200" height="200"><path d="M516.608 988.928c-21.248 0-40.96-10.496-52.736-28.16l-62.464-93.952c-11.008-16.64-30.976-24.832-50.688-20.992l-110.592 22.272c-20.736 4.096-42.24-2.304-57.344-17.152-15.104-15.104-21.504-36.352-17.152-57.344l22.272-110.592c3.84-19.712-4.352-39.424-20.992-50.688l-93.952-62.464c-17.664-11.776-28.16-31.488-28.16-52.736s10.496-40.96 28.16-52.736L166.912 401.92c16.64-11.008 24.832-30.976 20.992-50.688L165.632 240.64c-4.096-20.736 2.304-42.24 17.152-57.088 15.104-15.104 36.352-21.504 57.344-17.152l110.592 22.272c19.712 4.096 39.424-4.352 50.688-20.992L463.872 74.24c11.776-17.664 31.488-28.16 52.736-28.16s40.96 10.496 52.736 28.16l62.464 93.952c11.008 16.64 30.976 24.832 50.688 20.992l110.592-22.272c20.736-4.096 42.24 2.304 57.344 17.152s21.504 36.352 17.152 57.088l-22.272 110.592c-3.84 19.712 4.352 39.424 20.992 50.688l93.952 62.464c17.664 11.776 28.16 31.488 28.16 52.736s-10.496 40.96-28.16 52.736L865.792 632.32c-16.64 11.008-24.832 30.976-20.992 50.688l22.272 110.336c4.096 20.736-2.304 42.24-17.152 57.344-15.104 15.104-36.352 21.504-57.344 17.152l-110.592-22.272c-19.712-3.84-39.424 4.352-50.688 20.992l-62.464 93.952c-11.264 17.664-30.976 28.416-52.224 28.416zM360.96 783.36c36.608 0 71.168 18.176 91.904 49.408l62.464 93.952c0.256 0.256 0.512 0.768 1.536 0.768s1.28-0.512 1.536-0.768l62.464-93.952c25.088-37.632 69.632-56.064 113.92-47.104l110.592 22.272c0.256 0 1.024 0.256 1.536-0.512 0.768-0.768 0.512-1.28 0.512-1.536l-22.272-110.592c-8.96-44.288 9.728-89.088 47.104-113.92l93.952-62.464c0.256-0.256 0.768-0.512 0.768-1.536 0-1.024-0.512-1.28-0.768-1.536l-93.952-62.464c-37.632-25.088-56.064-69.632-47.104-113.92l22.272-110.592c0-0.256 0.256-1.024-0.512-1.536-0.768-0.768-1.28-0.512-1.536-0.512l-110.592 22.272c-44.288 8.96-89.088-9.728-113.92-47.104l-62.464-93.952c-0.256-0.256-0.512-0.768-1.536-0.768s-1.28 0.512-1.536 0.768l-62.464 93.952c-25.088 37.632-69.632 56.064-113.92 47.104l-110.592-22.272c-0.256 0-1.024-0.256-1.536 0.512-0.768 0.768-0.512 1.28-0.512 1.536l22.272 110.592c8.96 44.288-9.728 89.088-47.104 113.92L107.52 515.84c-0.256 0.256-0.768 0.512-0.768 1.536s0.512 1.28 0.768 1.536L201.216 581.12c37.632 25.088 56.064 69.632 47.104 113.92l-22.272 110.592c0 0.256-0.256 1.024 0.512 1.536 0.768 0.768 1.28 0.512 1.536 0.512l110.592-22.272c7.424-1.28 14.848-2.048 22.272-2.048z" fill="#040000" p-id="6966"></path><path d="M477.184 666.88c-7.168 0-14.592-2.56-20.224-7.68l-138.24-122.112c-12.8-11.264-13.824-30.72-2.816-43.264 11.264-12.8 30.72-13.824 43.264-2.816l116.48 102.912 190.976-194.304c11.776-12.032 31.232-12.288 43.52-0.256 12.032 11.776 12.288 31.232 0.256 43.52l-211.456 215.296c-5.888 5.632-13.824 8.704-21.76 8.704z" fill="#040000" p-id="6967"></path></svg>