<svg t="1712500442807" class="icon" viewBox="0 0 1024 1024" version="1.1" xmlns="http://www.w3.org/2000/svg" p-id="20601" width="200" height="200"><path d="M401 198.24v303H198v-303h203m43-86H155c-23.75 0-43 19.25-43 43v389c0 23.75 19.25 43 43 43h289c23.75 0 43-19.25 43-43v-389c0-23.75-19.25-43-43-43zM399.03 723.24v102.53h-201V723.24h201m43-86h-287c-23.75 0-43 19.25-43 43v188.53c0 23.75 19.25 43 43 43h287c23.75 0 43-19.25 43-43V680.24c0-23.75-19.25-43-43-43zM826 522.76v303H623v-303h203m43-86H580c-23.75 0-43 19.25-43 43v389c0 23.75 19.25 43 43 43h289c23.75 0 43-19.25 43-43v-389c0-23.75-19.25-43-43-43zM825 198.24v102.53H624V198.24h201m43-86H581c-23.75 0-43 19.25-43 43v188.53c0 23.75 19.25 43 43 43h287c23.75 0 43-19.25 43-43V155.24c0-23.75-19.25-43-43-43z" fill="#333333" p-id="20602"></path></svg>